<svg xmlns="http://www.w3.org/2000/svg"  viewBox="0 0 100 100" width="100px" height="100px" baseProfile="basic"><path fill="#78a1d1" d="M50,15L50,15c-19.33,0-35,15.67-35,35v0c0,19.33,15.67,35,35,35h0c19.33,0,35-15.67,35-35v0 C85,30.67,69.33,15,50,15z"/><path fill="#1f212b" d="M50,86c-19.851,0-36-16.149-36-36s16.149-36,36-36s36,16.149,36,36S69.851,86,50,86z M50,16 c-18.748,0-34,15.252-34,34s15.252,34,34,34s34-15.252,34-34S68.748,16,50,16z"/><path fill="#1f212b" d="M65.5,24.227c-0.087,0-0.174-0.022-0.254-0.069c-0.638-0.376-1.3-0.734-1.969-1.066 c-0.247-0.123-0.348-0.423-0.226-0.671c0.124-0.248,0.425-0.347,0.671-0.226c0.689,0.343,1.373,0.714,2.031,1.102 c0.238,0.141,0.317,0.447,0.177,0.685C65.838,24.139,65.671,24.227,65.5,24.227z"/><path fill="#1f212b" d="M68.5,26.249c-0.106,0-0.213-0.033-0.304-0.103c-0.323-0.247-0.651-0.487-0.983-0.721 c-0.227-0.159-0.281-0.471-0.122-0.696c0.16-0.227,0.473-0.281,0.696-0.122c0.344,0.241,0.684,0.489,1.017,0.744 c0.22,0.168,0.261,0.481,0.094,0.701C68.799,26.182,68.65,26.249,68.5,26.249z"/><path fill="#1f212b" d="M50,81c-17.094,0-31-13.906-31-31s13.906-31,31-31c3.665,0,7.256,0.635,10.672,1.887 c0.26,0.096,0.393,0.383,0.298,0.642c-0.095,0.261-0.385,0.391-0.642,0.298C57.022,20.614,53.548,20,50,20 c-16.542,0-30,13.458-30,30s13.458,30,30,30s30-13.458,30-30c0-8.439-3.585-16.535-9.836-22.213 c-0.205-0.186-0.22-0.502-0.034-0.706c0.187-0.203,0.503-0.219,0.706-0.034C77.296,32.914,81,41.279,81,50 C81,67.094,67.094,81,50,81z"/><g><path fill="#fdfcee" d="M53.342,62.596c-0.066,1.354,1.359,2.032,4.275,2.032V67.2H42.383v-2.573 c2.817,0,4.227-0.677,4.227-2.032V48.871c0-1.384-1.409-2.076-4.227-2.076v-2.574h10.959V62.596z M53.931,36.637 c0,1.054-0.401,1.964-1.204,2.732c-0.803,0.767-1.794,1.151-2.973,1.151c-0.59,0-1.139-0.105-1.646-0.316 c-0.509-0.211-0.95-0.489-1.327-0.835s-0.681-0.752-0.909-1.219c-0.229-0.466-0.344-0.971-0.344-1.512 c0-1.083,0.418-1.993,1.253-2.731c0.835-0.737,1.826-1.106,2.973-1.106c1.146,0,2.129,0.377,2.948,1.129 C53.521,34.681,53.931,35.584,53.931,36.637z"/><path fill="#1f212b" d="M57.617,67.7H42.383c-0.276,0-0.5-0.224-0.5-0.5v-2.573c0-0.276,0.224-0.5,0.5-0.5 c2.473,0,3.727-0.515,3.727-1.532V48.871c0-1.046-1.254-1.577-3.727-1.577c-0.276,0-0.5-0.224-0.5-0.5v-2.573 c0-0.276,0.224-0.5,0.5-0.5h10.959c0.276,0,0.5,0.224,0.5,0.5v18.375c0,0.008,0,0.016,0,0.024c-0.015,0.294,0.065,0.521,0.25,0.716 c0.344,0.361,1.235,0.792,3.525,0.792c0.276,0,0.5,0.224,0.5,0.5V67.2C58.117,67.477,57.894,67.7,57.617,67.7z M42.883,66.7h14.234 v-1.58c-1.871-0.053-3.1-0.413-3.75-1.095c-0.374-0.392-0.55-0.877-0.525-1.441V44.721h-9.959v1.581 c2.805,0.089,4.227,0.953,4.227,2.569v13.725c0,1.588-1.421,2.436-4.227,2.524V66.7z M53.342,62.596h0.01H53.342z M49.755,41.02 c-0.653,0-1.271-0.119-1.838-0.354c-0.559-0.231-1.055-0.543-1.474-0.929c-0.423-0.389-0.766-0.849-1.02-1.368 c-0.262-0.533-0.395-1.116-0.395-1.732c0-1.227,0.479-2.272,1.422-3.105c0.926-0.817,2.038-1.232,3.305-1.232 c1.269,0,2.375,0.424,3.286,1.26c0.923,0.849,1.391,1.884,1.391,3.077c0,1.19-0.457,2.23-1.358,3.093 C52.177,40.586,51.061,41.02,49.755,41.02z M49.755,33.299c-1.03,0-1.895,0.321-2.643,0.981c-0.729,0.644-1.084,1.415-1.084,2.356 c0,0.462,0.099,0.897,0.292,1.292c0.199,0.407,0.468,0.768,0.799,1.071c0.333,0.306,0.73,0.555,1.18,0.741 c0.445,0.185,0.935,0.278,1.456,0.278c1.055,0,1.914-0.331,2.627-1.013c0.706-0.675,1.049-1.451,1.049-2.37 c0-0.915-0.349-1.68-1.067-2.341C51.634,33.626,50.78,33.299,49.755,33.299z"/></g></svg>