<svg xmlns="http://www.w3.org/2000/svg"  viewBox="0 0 64 64" width="50px" height="50px"><path fill="#f283a5" d="M31 3A28 28 0 1 0 31 59A28 28 0 1 0 31 3Z"/><path fill="#ed7899" d="M31 8A23 23 0 1 0 31 54A23 23 0 1 0 31 8Z"/><path fill="#faefde" d="M47,26a13.06,13.06,0,0,0-4.06-9.34,15.24,15.24,0,0,0-10.66-4.07h0c-8.11,0-16.5,5.44-16.5,14.54,0,3.48,1,6.51,3.15,8,1.28.92,3.24-3.49,2.69-4.63A6.38,6.38,0,0,1,21,27.7c0-4.69,3.34-10.44,9.73-10.44,5,0,10.28,3.11,10.07,8.36-.24,5.93-3.6,11.63-6.92,11.58-3,0-3.67-3.23-3.49-4,.23-1,.54-2,.84-2.95a18.73,18.73,0,0,0,1.1-5c0-2.53-.29-4.15-2.9-4.23-2.89-.09-5.16,2.9-5.16,6.59a10.07,10.07,0,0,0,.34,2.59,4.12,4.12,0,0,1,.05,2L22.15,42.69a24.66,24.66,0,0,0-.08,8.61,1.24,1.24,0,0,0,.91,1,1.28,1.28,0,0,0,.34,0,1.27,1.27,0,0,0,1-.49l.06-.08c1.16-1.48,2.22-5.41,3-8.37.16-.59.69-2.66,1.08-4.2,1.26,1,2.52,2.46,5.82,2.65C41.65,42.31,47,35.22,47,26Z"/><path fill="#8d6c9f" d="M23.32,53.38a2.3,2.3,0,0,1-.6-.08,2.24,2.24,0,0,1-1.64-1.87,25.21,25.21,0,0,1,.1-9L23.64,32a3.09,3.09,0,0,0,0-1.53,11,11,0,0,1-.37-2.85,8.37,8.37,0,0,1,2.33-6A5.27,5.27,0,0,1,29.42,20c3.87.12,3.87,3.32,3.87,5.23a19.32,19.32,0,0,1-1.15,5.28c-.3,1-.6,2-.83,2.88a3.22,3.22,0,0,0,.72,2,2.26,2.26,0,0,0,1.8.81c2.49,0,5.68-4.86,5.91-10.62A5.9,5.9,0,0,0,38,21.12a10.43,10.43,0,0,0-7.34-2.86c-6,0-8.73,5.52-8.73,9.44a5.36,5.36,0,0,0,.57,2.44c.7,1.46-.71,4.64-1.92,5.67a1.77,1.77,0,0,1-2.25.21c-2.3-1.66-3.57-4.8-3.57-8.85,0-9.73,8.9-15.54,17.5-15.54A16.24,16.24,0,0,1,43.63,16,14.06,14.06,0,0,1,48,26c0,5.57-1.89,10.54-5.18,13.66a11.32,11.32,0,0,1-8.57,3.2A8.72,8.72,0,0,1,29.07,41c-.3,1.16-.58,2.28-.69,2.69L28.3,44c-.84,3.06-1.89,6.87-3.14,8.46A2.31,2.31,0,0,1,23.32,53.38Zm6-31.34a3.34,3.34,0,0,0-2.32,1,6.46,6.46,0,0,0-1.72,4.59,9,9,0,0,0,.3,2.33,5.15,5.15,0,0,1,.06,2.5L23.13,42.92a23.85,23.85,0,0,0-.07,8.23.25.25,0,0,0,.18.22.31.31,0,0,0,.29-.09c1.06-1.36,2.09-5.11,2.85-7.84l.07-.26c.16-.58.68-2.64,1.07-4.18a1,1,0,0,1,1.59-.54l.52.43a7,7,0,0,0,4.74,2,9.41,9.41,0,0,0,7.08-2.66C44.34,35.5,46,31.05,46,26a12.05,12.05,0,0,0-3.76-8.62,14.24,14.24,0,0,0-10-3.8c-7.62,0-15.5,5.07-15.5,13.54,0,3.23.93,5.8,2.56,7.1A5.59,5.59,0,0,0,20.7,31,7.28,7.28,0,0,1,20,27.7c0-7.16,5.45-11.44,10.73-11.44a12.32,12.32,0,0,1,8.79,3.47,7.93,7.93,0,0,1,2.28,5.93c-.24,5.94-3.65,12.54-7.88,12.54h-.05a4.25,4.25,0,0,1-3.42-1.65,4.92,4.92,0,0,1-1-3.57c.24-1,.55-2,.86-3a18.18,18.18,0,0,0,1.06-4.69c0-2.78-.41-3.19-1.93-3.23Z"/><path fill="#8d6c9f" d="M57.65,19.56A29,29,0,1,0,42.44,57.65,29,29,0,0,0,57.65,19.56Zm-16,36.25A27,27,0,1,1,55.81,20.35,27,27,0,0,1,41.65,55.81Z"/><path fill="#8d6c9f" d="M40.21 49.9a1 1 0 1 0-1.84.79l.79 1.84A1 1 0 1 0 41 51.74zM44.45 47.08a1 1 0 0 0-1.57 1.24l1.24 1.57a1 1 0 1 0 1.57-1.24zM29.41 50.75a1 1 0 0 0-1.11.88l-.24 2a1 1 0 0 0 .88 1.11h.12a1 1 0 0 0 1-.88l.24-2A1 1 0 0 0 29.41 50.75zM47.81 43.25a1 1 0 0 0-1.2 1.6l1.6 1.2a1 1 0 0 0 1.2-1.6zM34.24 50.69a1 1 0 0 0-.85 1.13l.29 2a1 1 0 0 0 1 .86h.14a1 1 0 0 0 .85-1.13l-.29-2A1 1 0 0 0 34.24 50.69zM29.59 9.1a21.62 21.62 0 0 1 2.29 0H32a1 1 0 0 0 .06-2 23.38 23.38 0 0 0-2.51 0 1 1 0 0 0-1 1A1 1 0 0 0 29.59 9.1zM25.49 9.71A1 1 0 1 0 25 7.77a23.09 23.09 0 0 0-12.75 8.44 1 1 0 1 0 1.6 1.21A21.08 21.08 0 0 1 25.49 9.71z"/></svg>